<svg width="13" height="17" viewBox="0 0 13 17" fill="none" xmlns="http://www.w3.org/2000/svg">
<path d="M1.02002 4.73096L1.14307 3.94141C1.23877 3.41504 1.43018 2.91943 1.71729 2.45459C2.01123 1.98291 2.38037 1.6001 2.82471 1.30615C3.26904 1.00537 3.77832 0.85498 4.35254 0.85498C4.91992 0.85498 5.37793 1.00879 5.72656 1.31641C6.08203 1.61719 6.32812 2.00684 6.46484 2.48535C6.6084 2.95703 6.64258 3.44238 6.56738 3.94141L6.43408 4.73096C6.34521 5.25049 6.15723 5.74268 5.87012 6.20752C5.58301 6.67236 5.21729 7.05518 4.77295 7.35596C4.33545 7.6499 3.83301 7.79688 3.26562 7.79688C2.69824 7.79688 2.2334 7.64648 1.87109 7.3457C1.51562 7.04492 1.26611 6.66211 1.12256 6.19727C0.979004 5.72559 0.944824 5.23682 1.02002 4.73096ZM1.71729 3.94141L1.57373 4.73096C1.50537 5.13428 1.51562 5.52734 1.60449 5.91016C1.7002 6.29297 1.88135 6.61084 2.14795 6.86377C2.42139 7.10986 2.79395 7.23291 3.26562 7.23291C3.7373 7.22607 4.15088 7.10645 4.50635 6.87402C4.86182 6.63477 5.15576 6.32373 5.38818 5.94092C5.62061 5.55811 5.77783 5.15479 5.85986 4.73096L6.01367 3.94141C6.0752 3.53809 6.06152 3.14502 5.97266 2.76221C5.89062 2.37256 5.71631 2.05469 5.44971 1.80859C5.18994 1.55566 4.82422 1.42578 4.35254 1.41895C3.88086 1.41895 3.46387 1.54199 3.10156 1.78809C2.73926 2.02734 2.43848 2.3418 2.19922 2.73145C1.9668 3.11426 1.80615 3.51758 1.71729 3.94141ZM7.08008 13.1392L7.21338 12.3394C7.30908 11.8198 7.50049 11.3276 7.7876 10.8628C8.07471 10.3911 8.44043 10.0083 8.88477 9.71436C9.3291 9.41357 9.83496 9.26318 10.4023 9.26318C10.9697 9.26318 11.4312 9.41357 11.7866 9.71436C12.1421 10.0151 12.3882 10.4014 12.5249 10.873C12.6685 11.3447 12.7026 11.8335 12.6274 12.3394L12.5044 13.1392C12.4087 13.6587 12.2173 14.1543 11.9302 14.626C11.6431 15.0908 11.2773 15.4736 10.833 15.7744C10.3955 16.0684 9.88965 16.2153 9.31543 16.2153C8.74805 16.2153 8.28662 16.0649 7.93115 15.7642C7.57568 15.4634 7.32617 15.0771 7.18262 14.6055C7.03906 14.1338 7.00488 13.645 7.08008 13.1392ZM7.7876 12.3394L7.63379 13.1392C7.56543 13.5425 7.57568 13.939 7.66455 14.3286C7.75342 14.7114 7.93115 15.0259 8.19775 15.272C8.47119 15.5181 8.84375 15.6445 9.31543 15.6514C9.78711 15.6514 10.2007 15.5317 10.5562 15.2925C10.9185 15.0464 11.2158 14.7319 11.4482 14.3491C11.6807 13.9663 11.8413 13.563 11.9302 13.1392L12.0737 12.3394C12.1421 11.9224 12.1353 11.5225 12.0532 11.1396C11.9712 10.7568 11.7969 10.4458 11.5303 10.2065C11.2637 9.96045 10.8877 9.83398 10.4023 9.82715C9.92383 9.82715 9.50342 9.94678 9.14111 10.186C8.78564 10.4253 8.4917 10.7363 8.25928 11.1191C8.03369 11.4951 7.87646 11.9019 7.7876 12.3394ZM11.4688 3.0083L2.39404 14.6465L1.96338 14.3184L11.0381 2.68018L11.4688 3.0083Z" fill="#2F3035"/>
</svg>
